<?xml version="1.0" encoding="UTF-8"?>
<svg width="120px" height="121px" viewBox="0 0 120 121" version="1.1" xmlns="http://www.w3.org/2000/svg" xmlns:xlink="http://www.w3.org/1999/xlink">
    <!-- Generator: sketchtool 54.1 (76490) - https://sketchapp.com -->
    <title>392BF7AF-574B-4DBA-9B12-EDF74996206D</title>
    <desc>Created with sketchtool.</desc>
    <g id="Page-1" stroke="none" stroke-width="1" fill="none" fill-rule="evenodd">
        <g id="SUCCESSFUL-CONVERSION-TO-EMI" transform="translate(-656.000000, -314.000000)" fill-rule="nonzero">
            <g id="Group-2" transform="translate(444.500000, 314.500000)">
                <g id="checked_flip.svg" transform="translate(211.500000, 0.000000)">
                    <circle id="Oval" fill="#19D2AE" cx="59.9055118" cy="59.9055118" r="59.9055118"></circle>
                    <path d="M44.5984252,86.9291339 L75.4015748,117.732283 C100.913386,110.929134 119.811024,87.6850394 119.811024,59.9055118 C119.811024,59.3385827 119.811024,58.7716535 119.811024,58.2047244 L95.6220472,35.9055118 L44.5984252,86.9291339 Z" id="Path" fill="#14BC9B"></path>
                    <g id="Group" transform="translate(20.078740, 29.527559)" fill="#FFFFFF">
                        <path d="M41.3385827,43.7952756 C43.984252,46.4409449 43.984252,50.976378 41.3385827,53.6220472 L35.8582677,59.1023622 C33.2125984,61.7480315 28.6771654,61.7480315 26.0314961,59.1023622 L2.03149606,34.9133858 C-0.614173228,32.2677165 -0.614173228,27.7322835 2.03149606,25.0866142 L7.51181102,19.6062992 C10.1574803,16.9606299 14.6929134,16.9606299 17.3385827,19.6062992 L41.3385827,43.7952756 Z" id="Path"></path>
                        <path d="M62.3149606,2.03149606 C64.9606299,-0.614173228 69.496063,-0.614173228 72.1417323,2.03149606 L77.6220472,7.51181102 C80.2677165,10.1574803 80.2677165,14.6929134 77.6220472,17.3385827 L36.0472441,58.7244094 C33.4015748,61.3700787 28.8661417,61.3700787 26.2204724,58.7244094 L20.7401575,53.2440945 C18.0944882,50.5984252 18.0944882,46.0629921 20.7401575,43.4173228 L62.3149606,2.03149606 Z" id="Path"></path>
                    </g>
                </g>
            </g>
        </g>
    </g>
</svg>